<?xml version="1.0" encoding="UTF-8" standalone="no"?>
<!-- Created with Inkscape (http://www.inkscape.org/) -->

<svg
   xmlns:dc="http://purl.org/dc/elements/1.1/"
   xmlns:cc="http://creativecommons.org/ns#"
   xmlns:rdf="http://www.w3.org/1999/02/22-rdf-syntax-ns#"
   xmlns:svg="http://www.w3.org/2000/svg"
   xmlns="http://www.w3.org/2000/svg"
   xmlns:xlink="http://www.w3.org/1999/xlink"
   xmlns:sodipodi="http://sodipodi.sourceforge.net/DTD/sodipodi-0.dtd"
   xmlns:inkscape="http://www.inkscape.org/namespaces/inkscape"
   sodipodi:docname="icon.svg"
   inkscape:version="0.47 r22583"
   version="1.1"
   inkscape:label="Pozadí"
   id="svg2"
   height="1052.3622047"
   width="744.09448819">
  <sodipodi:namedview
     id="base"
     pagecolor="#ffffff"
     bordercolor="#666666"
     borderopacity="1.0"
     inkscape:pageopacity="0.0"
     inkscape:pageshadow="2"
     inkscape:zoom="0.51158397"
     inkscape:cx="476.12904"
     inkscape:cy="599.42556"
     inkscape:document-units="px"
     inkscape:current-layer="svg2"
     showgrid="false"
     inkscape:window-width="1280"
     inkscape:window-height="744"
     inkscape:window-x="-4"
     inkscape:window-y="-4"
     inkscape:window-maximized="1"
     inkscape:snap-center="false"
     showguides="true"
     inkscape:guide-bbox="true" />
  <defs
     id="defs3">
    <linearGradient
       id="linearGradient4389">
      <stop
         style="stop-color:#00ff00;stop-opacity:1;"
         offset="0"
         id="stop4391" />
      <stop
         id="stop4397"
         offset="0.4133417"
         style="stop-color:#00ff00;stop-opacity:1;" />
      <stop
         style="stop-color:#009800;stop-opacity:1;"
         offset="1"
         id="stop4393" />
    </linearGradient>
    <linearGradient
       id="linearGradient4072">
      <stop
         style="stop-color:#0281b5;stop-opacity:1;"
         offset="0"
         id="stop4074" />
      <stop
         style="stop-color:#00b5ff;stop-opacity:1;"
         offset="1"
         id="stop4076" />
    </linearGradient>
    <linearGradient
       id="linearGradient4064">
      <stop
         style="stop-color:#cccccc;stop-opacity:1;"
         offset="0"
         id="stop4066" />
      <stop
         style="stop-color:#cccccc;stop-opacity:1;"
         offset="1"
         id="stop4068" />
    </linearGradient>
    <linearGradient
       id="linearGradient3976">
      <stop
         style="stop-color:#0078aa;stop-opacity:1;"
         offset="0"
         id="stop3978" />
      <stop
         id="stop3992"
         offset="0.22695468"
         style="stop-color:#00b2fb;stop-opacity:1;" />
      <stop
         id="stop3988"
         offset="0.37628752"
         style="stop-color:#0093d0;stop-opacity:1;" />
      <stop
         id="stop3986"
         offset="0.49753031"
         style="stop-color:#00a3e7;stop-opacity:1;" />
      <stop
         id="stop3984"
         offset="0.60918832"
         style="stop-color:#3bc6ff;stop-opacity:1;" />
      <stop
         style="stop-color:#0282b6;stop-opacity:1;"
         offset="0.81335515"
         id="stop3990" />
      <stop
         style="stop-color:#0076a7;stop-opacity:1;"
         offset="1"
         id="stop3980" />
    </linearGradient>
    <linearGradient
       id="linearGradient3590">
      <stop
         id="stop3592"
         offset="0"
         style="stop-color:#dff4ff;stop-opacity:1;" />
      <stop
         id="stop3594"
         offset="1"
         style="stop-color:#ffffff;stop-opacity:1;" />
    </linearGradient>
    <inkscape:perspective
       id="perspective9"
       inkscape:persp3d-origin="372.04724 : 350.78739 : 1"
       inkscape:vp_z="744.09448 : 526.18109 : 1"
       inkscape:vp_y="0 : 1000 : 0"
       inkscape:vp_x="0 : 526.18109 : 1"
       sodipodi:type="inkscape:persp3d" />
    <linearGradient
       inkscape:collect="always"
       xlink:href="#linearGradient3976"
       id="linearGradient4053"
       x1="365.71875"
       y1="234.8125"
       x2="245.4375"
       y2="114.53125"
       gradientUnits="userSpaceOnUse" />
    <linearGradient
       inkscape:collect="always"
       xlink:href="#linearGradient4072"
       id="linearGradient4078"
       x1="278.0625"
       y1="147.15625"
       x2="333.09375"
       y2="202.1875"
       gradientUnits="userSpaceOnUse" />
    <linearGradient
       inkscape:collect="always"
       xlink:href="#linearGradient3976"
       id="linearGradient4081"
       gradientUnits="userSpaceOnUse"
       x1="336.93082"
       y1="250.35568"
       x2="274.22717"
       y2="98.98394"
       gradientTransform="matrix(0.92387953,-0.38268343,0.38268343,0.92387953,-43.583283,130.23579)" />
    <linearGradient
       inkscape:collect="always"
       xlink:href="#linearGradient3976"
       id="linearGradient4101"
       gradientUnits="userSpaceOnUse"
       gradientTransform="matrix(0.92387953,-0.38268343,0.38268343,0.92387953,-43.583283,130.23579)"
       x1="336.93082"
       y1="250.35568"
       x2="274.22717"
       y2="98.98394" />
    <linearGradient
       inkscape:collect="always"
       xlink:href="#linearGradient4072"
       id="linearGradient4103"
       gradientUnits="userSpaceOnUse"
       x1="278.0625"
       y1="147.15625"
       x2="333.09375"
       y2="202.1875" />
    <linearGradient
       inkscape:collect="always"
       xlink:href="#linearGradient3976"
       id="linearGradient4113"
       gradientUnits="userSpaceOnUse"
       gradientTransform="matrix(0.92387953,-0.38268343,0.38268343,0.92387953,-43.583283,130.23579)"
       x1="336.93082"
       y1="250.35568"
       x2="274.22717"
       y2="98.98394" />
    <linearGradient
       inkscape:collect="always"
       xlink:href="#linearGradient4072"
       id="linearGradient4115"
       gradientUnits="userSpaceOnUse"
       x1="278.0625"
       y1="147.15625"
       x2="333.09375"
       y2="202.1875" />
    <linearGradient
       inkscape:collect="always"
       xlink:href="#linearGradient3976"
       id="linearGradient4131"
       gradientUnits="userSpaceOnUse"
       gradientTransform="matrix(0.92387953,-0.38268343,0.38268343,0.92387953,-43.583283,130.23579)"
       x1="336.93082"
       y1="250.35568"
       x2="274.22717"
       y2="98.98394" />
    <linearGradient
       inkscape:collect="always"
       xlink:href="#linearGradient4072"
       id="linearGradient4133"
       gradientUnits="userSpaceOnUse"
       x1="278.0625"
       y1="147.15625"
       x2="333.09375"
       y2="202.1875" />
    <linearGradient
       inkscape:collect="always"
       xlink:href="#linearGradient3976"
       id="linearGradient4149"
       gradientUnits="userSpaceOnUse"
       gradientTransform="matrix(0.92387953,-0.38268343,0.38268343,0.92387953,-43.583283,130.23579)"
       x1="336.93082"
       y1="250.35568"
       x2="274.22717"
       y2="98.98394" />
    <linearGradient
       inkscape:collect="always"
       xlink:href="#linearGradient4072"
       id="linearGradient4151"
       gradientUnits="userSpaceOnUse"
       x1="278.0625"
       y1="147.15625"
       x2="333.09375"
       y2="202.1875" />
    <filter
       inkscape:collect="always"
       id="filter4167">
      <feGaussianBlur
         inkscape:collect="always"
         stdDeviation="0.5792792"
         id="feGaussianBlur4169" />
    </filter>
    <linearGradient
       inkscape:collect="always"
       xlink:href="#linearGradient3976"
       id="linearGradient4177"
       gradientUnits="userSpaceOnUse"
       gradientTransform="matrix(0.92387953,-0.38268343,0.38268343,0.92387953,-43.583283,130.23579)"
       x1="336.93082"
       y1="250.35568"
       x2="274.22717"
       y2="98.98394" />
    <linearGradient
       inkscape:collect="always"
       xlink:href="#linearGradient4072"
       id="linearGradient4179"
       gradientUnits="userSpaceOnUse"
       x1="278.0625"
       y1="147.15625"
       x2="333.09375"
       y2="202.1875" />
    <linearGradient
       inkscape:collect="always"
       xlink:href="#linearGradient3976"
       id="linearGradient4189"
       gradientUnits="userSpaceOnUse"
       gradientTransform="matrix(0.92387953,-0.38268343,0.38268343,0.92387953,-43.583283,130.23579)"
       x1="336.93082"
       y1="250.35568"
       x2="274.22717"
       y2="98.98394" />
    <linearGradient
       inkscape:collect="always"
       xlink:href="#linearGradient4072"
       id="linearGradient4191"
       gradientUnits="userSpaceOnUse"
       x1="278.0625"
       y1="147.15625"
       x2="333.09375"
       y2="202.1875" />
    <linearGradient
       inkscape:collect="always"
       xlink:href="#linearGradient4072"
       id="linearGradient4194"
       gradientUnits="userSpaceOnUse"
       x1="278.0625"
       y1="147.15625"
       x2="333.09375"
       y2="202.1875"
       gradientTransform="matrix(1.0812728,-0.44787784,0.44787784,1.0812728,149.2266,158.79671)" />
    <filter
       inkscape:collect="always"
       id="filter4304">
      <feGaussianBlur
         inkscape:collect="always"
         stdDeviation="0.53033758"
         id="feGaussianBlur4306" />
    </filter>
    <linearGradient
       inkscape:collect="always"
       xlink:href="#linearGradient3976"
       id="linearGradient4366"
       gradientUnits="userSpaceOnUse"
       gradientTransform="matrix(0.82847852,-0.14705676,0.14705676,0.82847852,-165.81711,44.212289)"
       x1="336.93082"
       y1="250.35568"
       x2="274.22717"
       y2="98.98394" />
    <linearGradient
       inkscape:collect="always"
       xlink:href="#linearGradient4072"
       id="linearGradient4368"
       gradientUnits="userSpaceOnUse"
       gradientTransform="matrix(0.82169051,0.18118225,-0.18118225,0.82169051,-106.40873,-54.904699)"
       x1="278.0625"
       y1="147.15625"
       x2="333.09375"
       y2="202.1875" />
    <linearGradient
       inkscape:collect="always"
       xlink:href="#linearGradient3976"
       id="linearGradient4370"
       gradientUnits="userSpaceOnUse"
       gradientTransform="matrix(0.71822742,-0.03217856,0.03217856,0.71822742,-154.6439,43.265708)"
       x1="402.64108"
       y1="169.70946"
       x2="477.64587"
       y2="299.61295" />
    <linearGradient
       inkscape:collect="always"
       xlink:href="#linearGradient4072"
       id="linearGradient4372"
       gradientUnits="userSpaceOnUse"
       gradientTransform="matrix(0.70208284,0.15480883,-0.15480883,0.70208284,-104.32234,-35.072519)"
       x1="416.69498"
       y1="234.22554"
       x2="465.28873"
       y2="234.22554" />
    <linearGradient
       inkscape:collect="always"
       xlink:href="#linearGradient3590"
       id="linearGradient4387"
       gradientUnits="userSpaceOnUse"
       gradientTransform="matrix(3.0303582,0,0,3.0303582,-164.42922,-248.70885)"
       x1="159.99998"
       y1="329.47522"
       x2="159.99998"
       y2="98.1063" />
    <linearGradient
       inkscape:collect="always"
       xlink:href="#linearGradient4389"
       id="linearGradient4395"
       x1="1096.5768"
       y1="625.7724"
       x2="1096.5768"
       y2="687.77277"
       gradientUnits="userSpaceOnUse" />
    <linearGradient
       inkscape:collect="always"
       xlink:href="#linearGradient4389"
       id="linearGradient4405"
       x1="1018.3112"
       y1="356.93039"
       x2="1178.2823"
       y2="356.93039"
       gradientUnits="userSpaceOnUse" />
    <linearGradient
       inkscape:collect="always"
       xlink:href="#linearGradient4389"
       id="linearGradient4413"
       x1="721.35889"
       y1="420.3204"
       x2="841.05939"
       y2="212.99307"
       gradientUnits="userSpaceOnUse" />
    <filter
       inkscape:collect="always"
       id="filter4437"
       x="-0.10190926"
       width="1.2038185"
       y="-0.042948525"
       height="1.085897">
      <feGaussianBlur
         inkscape:collect="always"
         stdDeviation="2.9368881"
         id="feGaussianBlur4439" />
    </filter>
    <filter
       inkscape:collect="always"
       id="filter4443"
       x="-0.030327103"
       width="1.0606542"
       y="-2.7814285"
       height="6.5628571">
      <feGaussianBlur
         inkscape:collect="always"
         stdDeviation="1.9822014"
         id="feGaussianBlur4445" />
    </filter>
    <linearGradient
       inkscape:collect="always"
       xlink:href="#linearGradient3976"
       id="linearGradient4477"
       gradientUnits="userSpaceOnUse"
       gradientTransform="matrix(0.82847852,-0.14705676,0.14705676,0.82847852,-165.81711,44.212289)"
       x1="336.93082"
       y1="250.35568"
       x2="274.22717"
       y2="98.98394" />
    <linearGradient
       inkscape:collect="always"
       xlink:href="#linearGradient4072"
       id="linearGradient4479"
       gradientUnits="userSpaceOnUse"
       gradientTransform="matrix(0.82169051,0.18118225,-0.18118225,0.82169051,-106.40873,-54.904699)"
       x1="278.0625"
       y1="147.15625"
       x2="333.09375"
       y2="202.1875" />
    <linearGradient
       inkscape:collect="always"
       xlink:href="#linearGradient3976"
       id="linearGradient4481"
       gradientUnits="userSpaceOnUse"
       gradientTransform="matrix(0.71822742,-0.03217856,0.03217856,0.71822742,-154.6439,43.265708)"
       x1="402.64108"
       y1="169.70946"
       x2="477.64587"
       y2="299.61295" />
    <linearGradient
       inkscape:collect="always"
       xlink:href="#linearGradient4072"
       id="linearGradient4483"
       gradientUnits="userSpaceOnUse"
       gradientTransform="matrix(0.70208284,0.15480883,-0.15480883,0.70208284,-104.32234,-35.072519)"
       x1="416.69498"
       y1="234.22554"
       x2="465.28873"
       y2="234.22554" />
    <linearGradient
       inkscape:collect="always"
       xlink:href="#linearGradient4389"
       id="linearGradient4485"
       gradientUnits="userSpaceOnUse"
       x1="1096.5768"
       y1="625.7724"
       x2="1096.5768"
       y2="687.77277" />
    <linearGradient
       inkscape:collect="always"
       xlink:href="#linearGradient4389"
       id="linearGradient4487"
       gradientUnits="userSpaceOnUse"
       x1="721.35889"
       y1="420.3204"
       x2="841.05939"
       y2="212.99307" />
    <linearGradient
       inkscape:collect="always"
       xlink:href="#linearGradient4389"
       id="linearGradient4489"
       gradientUnits="userSpaceOnUse"
       x1="1018.3112"
       y1="356.93039"
       x2="1178.2823"
       y2="356.93039" />
    <linearGradient
       inkscape:collect="always"
       xlink:href="#linearGradient3590"
       id="linearGradient2914"
       gradientUnits="userSpaceOnUse"
       gradientTransform="matrix(2.7370002,0,0,2.7370002,58.801351,-256.81877)"
       x1="159.99998"
       y1="329.47522"
       x2="159.99998"
       y2="98.1063" />
  </defs>
  <metadata
     id="metadata6">
    <rdf:RDF>
      <cc:Work
         rdf:about="">
        <dc:format>image/svg+xml</dc:format>
        <dc:type
           rdf:resource="http://purl.org/dc/dcmitype/StillImage" />
        <dc:title></dc:title>
      </cc:Work>
    </rdf:RDF>
  </metadata>
  <g
     id="layer1"
     inkscape:groupmode="layer"
     inkscape:label="Vrstva 1" />
  <path
     sodipodi:nodetypes="cccccc"
     id="rect2815"
     d="m 261.22551,18.540696 326.98513,0 144.00651,142.055474 0,477.51627 -470.99164,0 0,-619.571744 z"
     style="fill:url(#linearGradient2914);fill-opacity:1;fill-rule:nonzero;stroke:#aaaaaa;stroke-width:9.03193569;stroke-linejoin:bevel;stroke-miterlimit:4;stroke-opacity:1;stroke-dasharray:none"
     inkscape:export-filename="E:\Programy\Programs\SCS Games Cruise Control\ACC 2.2.x\Dev\Documents\PluginInstaller\icon.png"
     inkscape:export-xdpi="63.185379"
     inkscape:export-ydpi="63.185379" />
  <path
     id="path3604"
     d="m 732.21715,160.0702 -145.73333,0 0,-141.529504 145.73333,141.529504 z"
     style="fill:#e1f5ff;fill-opacity:1;stroke:#aaaaaa;stroke-width:9.03193569;stroke-linecap:butt;stroke-linejoin:bevel;stroke-miterlimit:4;stroke-opacity:1;stroke-dasharray:none"
     inkscape:export-filename="E:\Programy\Programs\SCS Games Cruise Control\ACC 2.2.x\Dev\Documents\PluginInstaller\icon.png"
     inkscape:export-xdpi="63.185379"
     inkscape:export-ydpi="63.185379" />
  <g
     id="g4308"
     transform="matrix(2.7370001,0,0,2.7370001,127.57205,-125.0894)"
     inkscape:export-filename="E:\Programy\Programs\SCS Games Cruise Control\ACC 2.2.x\Dev\Documents\PluginInstaller\icon.png"
     inkscape:export-xdpi="63.185379"
     inkscape:export-ydpi="63.185379">
    <g
       transform="matrix(0.82169051,0.18118225,-0.18118225,0.82169051,-105.16543,-53.364169)"
       style="fill:#4d4d4d;filter:url(#filter4167)"
       id="g4087">
      <path
         id="path4089"
         d="m 276.86124,121.47106 3.50371,18.91121 c -3.51885,2.58253 -6.55051,5.63932 -9.06466,9.0652 l -18.90377,-3.5011 -4.74743,11.40356 15.8546,10.92021 c -0.64041,4.19012 -0.63134,8.50439 0.0285,12.80778 l -15.87862,10.90671 4.72375,11.40413 18.94009,-3.51567 c 2.57638,3.50953 5.62062,6.5666 9.03632,9.07662 l -3.48914,18.93264 11.42047,4.7066 10.89134,-15.84264 c 4.19848,0.64442 8.50722,0.66161 12.81974,3.8e-4 l 10.89475,15.84975 11.40413,-4.72375 -3.50371,-18.91121 c 3.50953,-2.57639 6.55464,-5.6495 9.06466,-9.0652 l 18.93264,3.48914 4.71856,-11.3916 -15.8546,-10.92021 c 0.64041,-4.19012 0.66021,-8.51635 3.8e-4,-12.81974 l 15.84975,-10.89475 -4.72375,-11.40413 -18.91121,3.50371 c -2.57639,-3.50953 -5.6495,-6.55464 -9.0652,-9.06466 l 3.48914,-18.93264 -11.3916,-4.71856 -10.92021,15.8546 c -4.19188,-0.64069 -8.51455,-0.66106 -12.81974,-3.8e-4 l -10.89475,-15.84975 -11.40413,4.72375 z m 19.4164,30.78828 c 12.38595,-5.13043 26.59455,0.75496 31.72498,13.14092 5.13043,12.38595 -0.76692,26.56568 -13.15288,31.69611 -12.38595,5.13043 -26.55372,-0.73805 -31.68415,-13.12401 -5.13043,-12.38595 0.72609,-26.58259 13.11205,-31.71302 z"
         style="fill:#4d4d4d;fill-opacity:1;fill-rule:nonzero;stroke:none" />
      <path
         id="path4091"
         d="m 305.59375,147.15625 c -15.20014,0 -27.53125,12.29986 -27.53125,27.5 0,15.20014 12.33111,27.53125 27.53125,27.53125 15.20014,0 27.5,-12.33111 27.5,-27.53125 0,-15.20014 -12.29986,-27.5 -27.5,-27.5 z m 0,5.1875 c 12.33026,0 22.3125,9.98224 22.3125,22.3125 0,12.33026 -9.98224,22.34375 -22.3125,22.34375 -12.33026,0 -22.34375,-10.01349 -22.34375,-22.34375 0,-12.33026 10.01349,-22.3125 22.34375,-22.3125 z"
         style="fill:#4d4d4d;fill-opacity:1;fill-rule:nonzero;stroke:none" />
    </g>
    <path
       id="rect3932"
       d="m 99.077126,95.06926 -0.547401,16.17397 c -3.359324,1.48449 -6.40424,3.44694 -9.090806,5.80644 l -14.898705,-6.30185 -5.967046,8.51004 11.04903,11.84561 c -1.285396,3.32695 -2.059614,6.87359 -2.297105,10.52919 l -15.023417,6.08502 1.815237,10.22652 16.199872,0.54282 c 1.481112,3.35054 3.428659,6.41407 5.780526,9.0954 l -6.297249,14.9246 8.531339,5.93655 11.819719,-11.04443 c 3.33309,1.2902 6.87043,2.085 10.53378,2.32303 l 6.08044,14.99752 10.22652,-1.81523 0.5474,-16.17398 c 3.35055,-1.48113 6.40948,-3.45455 9.09081,-5.80643 l 14.92459,6.29724 5.94115,-8.50544 -11.04902,-11.8456 c 1.28539,-3.32696 2.0855,-6.87819 2.32302,-10.53379 l 14.99752,-6.08042 -1.81523,-10.22653 -16.17397,-0.54741 c -1.48112,-3.35055 -3.45456,-6.40948 -5.80644,-9.0908 l 6.29726,-14.9246 -8.50546,-5.941148 -11.8456,11.049028 c -3.32834,-1.28595 -6.87655,-2.08588 -10.53379,-2.32303 l -6.08042,-14.997519 -10.226524,1.815235 z m 10.375984,28.81634 c 11.10697,-1.97151 21.71571,5.43881 23.68722,16.54578 1.97151,11.10695 -5.44341,21.68981 -16.55037,23.66132 -11.10697,1.97151 -21.685228,-5.41751 -23.656727,-16.52448 -1.971521,-11.10696 5.412913,-21.71111 16.519877,-23.68262 z"
       style="fill:url(#linearGradient4477);fill-opacity:1;fill-rule:nonzero;stroke:none" />
    <path
       id="path4057"
       d="m 118.03266,121.38035 c -12.48981,-2.754 -24.850681,5.11851 -27.604678,17.60832 -2.753994,12.48981 5.144183,24.85635 17.633988,27.61034 12.48982,2.754 24.83068,-5.14984 27.58467,-17.63965 2.754,-12.48981 -5.12416,-24.82501 -17.61398,-27.57901 z m -0.93989,4.26253 c 10.13167,2.23402 16.52537,12.24494 14.29135,22.3766 -2.23403,10.13165 -12.2506,16.55104 -22.38226,14.31701 -10.131658,-2.23402 -16.545383,-12.27628 -14.31136,-22.40793 2.234026,-10.13167 12.27062,-16.51971 22.40227,-14.28568 z"
       style="fill:url(#linearGradient4479);fill-opacity:1;fill-rule:nonzero;stroke:none" />
    <g
       transform="matrix(0.70208284,0.15480883,-0.15480883,0.70208284,-112.83685,-28.088764)"
       style="fill:#4d4d4d;fill-opacity:1;filter:url(#filter4304)"
       id="g4284">
      <path
         style="fill:#4d4d4d;fill-opacity:1;fill-rule:nonzero;stroke:none"
         d="m 431.9143,174.18398 1.06961,20.7748 c -3.53333,2.42922 -6.52356,5.45421 -8.90083,8.92015 l -20.76528,-1.0682 -3.73754,13.94243 18.51877,9.46707 c 0.1664,2.06581 0.5268,4.13938 1.08238,6.21281 0.55834,2.08376 1.28233,4.0713 2.17712,5.95182 l -11.30419,17.45811 10.20802,10.20572 17.44107,-11.33791 c 3.80101,1.81738 7.92098,2.96273 12.2067,3.29676 l 9.42282,18.50421 13.94555,-3.7367 -1.06152,-20.74462 c 3.53634,-2.43 6.5441,-5.49021 8.92293,-8.95842 l 20.77337,1.09838 3.73754,-13.94242 -18.54896,-9.45898 c -0.16523,-2.07703 -0.50164,-4.16624 -1.06028,-6.25109 -0.55538,-2.07271 -1.28065,-4.04996 -2.16904,-5.92163 l 11.30419,-17.45811 -10.20801,-10.20572 -17.44916,11.30772 c -3.79362,-1.81385 -7.92179,-2.93009 -12.19861,-3.26657 l -9.46109,-18.52631 -13.94556,3.7367 z m 15.47929,29.75763 c 10.78211,-2.88905 21.84357,3.5228 24.73263,14.30491 2.88905,10.7821 -3.48453,21.86566 -14.26663,24.75472 -10.78211,2.88906 -21.87376,-3.51471 -24.76282,-14.29682 -2.88905,-10.7821 3.51471,-21.87375 14.29682,-24.76281 z"
         id="path4181" />
      <path
         style="fill:#4d4d4d;fill-opacity:1;fill-rule:nonzero;stroke:none"
         d="m 452.62712,199.17859 c -13.4187,0 -24.3125,10.8938 -24.3125,24.3125 0,13.4187 10.8938,24.28125 24.3125,24.28125 13.4187,0 24.28125,-10.86255 24.28125,-24.28125 0,-13.4187 -10.86255,-24.3125 -24.28125,-24.3125 z m 0,7.09375 c 9.49996,0 17.1875,7.71879 17.1875,17.21875 0,9.49996 -7.68754,17.1875 -17.1875,17.1875 -9.49996,0 -17.21875,-7.68754 -17.21875,-17.1875 0,-9.49996 7.71879,-17.21875 17.21875,-17.21875 z"
         id="path4265" />
    </g>
    <path
       style="fill:url(#linearGradient4481);fill-opacity:1;fill-rule:nonzero;stroke:none"
       d="m 162.12769,159.82835 -2.46517,14.75121 c -2.85676,1.15854 -5.42444,2.81941 -7.63004,4.88477 l -14.41358,-3.96462 -4.78247,9.21014 11.53612,9.51354 c -0.20298,1.47613 -0.27095,2.98774 -0.20188,4.52946 0.0694,1.54941 0.27003,3.05691 0.60713,4.51571 l -10.63914,10.50705 5.58693,8.74555 14.00029,-5.26011 c 2.38727,1.86438 5.10252,3.30632 8.05974,4.2043 l 3.75099,14.45022 10.3694,-0.46457 2.46617,-14.72878 c 2.859,-1.15861 5.44444,-2.8415 7.65149,-4.9082 l 14.41459,3.98705 4.78246,-9.21013 -11.55856,-9.51253 c 0.20554,-1.48383 0.29278,-3.0027 0.22331,-4.55293 -0.069,-1.54119 -0.27215,-3.04166 -0.60612,-4.49325 l 10.63915,-10.50705 -5.58694,-8.74556 -14.00129,5.23768 c -2.38263,-1.86077 -5.10814,-3.28354 -8.05874,-4.18186 l -3.77443,-14.47167 -10.36941,0.46458 z m 6.261,23.28865 c 8.01719,-0.35918 14.79063,5.85488 15.14982,13.87206 0.3592,8.01718 -5.83142,14.81207 -13.8486,15.17127 -8.01719,0.35919 -14.81308,-5.85386 -15.17228,-13.87106 -0.35918,-8.01717 5.85388,-14.81307 13.87106,-15.17227 z"
       id="path4290" />
    <path
       style="fill:url(#linearGradient4483);fill-opacity:1;fill-rule:nonzero;stroke:none"
       d="m 172.80263,180.58664 c -9.42104,-2.07733 -18.75584,3.88456 -20.83317,13.3056 -2.07734,9.42104 3.88939,18.7339 13.31043,20.81123 9.42104,2.07733 18.72907,-3.86745 20.8064,-13.28849 2.07733,-9.42104 -3.86262,-18.75101 -13.28366,-20.82834 z m -1.09817,4.98039 c 6.66975,1.47068 10.87212,8.08001 9.40144,14.74977 -1.47068,6.66977 -8.05808,10.87696 -14.72783,9.40628 -6.66976,-1.47068 -10.8989,-8.06291 -9.42822,-14.73267 1.47068,-6.66976 8.08485,-10.89406 14.75461,-9.42338 z"
       id="path4292" />
  </g>
  <g
     id="g4447"
     transform="matrix(1.1692352,0,0,1.1692352,-1033.4301,-60.860715)"
     inkscape:export-xdpi="63.185379"
     inkscape:export-ydpi="63.185379"
     inkscape:export-filename="E:\Programy\Programs\SCS Games Cruise Control\ACC 2.2.x\Dev\Documents\PluginInstaller\icon.png">
    <rect
       y="625.7724"
       x="890.48688"
       height="62.000393"
       width="412.17975"
       id="rect4347"
       style="fill:url(#linearGradient4485);fill-opacity:1;fill-rule:nonzero;stroke:none" />
    <path
       transform="matrix(0.4429113,0.42200214,-0.76714486,0.24364305,998.36891,133.12166)"
       d="m 930.99285,409.49162 -406.7639,0 L 727.6109,57.223755 930.99285,409.49162 z"
       inkscape:randomized="0"
       inkscape:rounded="1.0408341e-17"
       inkscape:flatsided="true"
       sodipodi:arg2="1.5707963"
       sodipodi:arg1="0.52359878"
       sodipodi:r2="117.42262"
       sodipodi:r1="234.84525"
       sodipodi:cy="292.069"
       sodipodi:cx="727.6109"
       sodipodi:sides="3"
       id="path4349"
       style="fill:url(#linearGradient4487);fill-opacity:1;fill-rule:nonzero;stroke:none"
       sodipodi:type="star" />
    <rect
       y="259.74359"
       x="1018.3112"
       height="194.3736"
       width="159.97119"
       id="rect4351"
       style="fill:url(#linearGradient4489);fill-opacity:1;fill-rule:nonzero;stroke:none" />
    <path
       transform="matrix(1,0,0.05381103,1.0369639,-30.436722,-22.176876)"
       id="path4415"
       d="m 1091.8545,625.49213 0,-164.1158 -60.2406,0 60.2406,164.1158 z"
       style="opacity:0.2;fill:#ffffff;stroke:none;filter:url(#filter4437)" />
    <rect
       y="451.77652"
       x="1019.864"
       height="1.7103741"
       width="156.86574"
       id="rect4441"
       style="opacity:0.2;fill:#000000;fill-opacity:1;fill-rule:nonzero;stroke:none;filter:url(#filter4443)" />
  </g>
</svg>
